<?xml version="1.0" encoding="utf-8"?>
<svg xmlns="http://www.w3.org/2000/svg" xmlns:svg="http://www.w3.org/2000/svg" version="1.1" viewBox="0 0 20 20">
	<title>A circle enclosing two smaller circles, the top one containing the word Body, and the bottom one containing the word Soul.</title>
	<path d="M 10,0 C 4.4831234,0 2.7061884e-5,4.4831234 0,10 -3.1011058e-5,15.516918 4.4830825,20 10,20 15.516918,20 20.000031,15.516918 20,10 19.999973,4.4831232 15.516877,-2.3235723e-7 10,0 Z m 0,1 c 4.976438,-2.1e-7 8.999976,4.0235616 9,9 2.8e-5,4.976476 -4.023524,9 -9,9 -4.9764754,0 -9.00002797,-4.023525 -9,-9 2.44e-5,-4.9764382 4.0235618,-9 9,-9 z"/>
	<path d="M 10,2 C 7.9348061,2 6.2499609,3.6848059 6.25,5.75 6.2500244,7.8151496 7.9348506,9.5 10,9.5 c 2.065149,10e-8 3.749976,-1.6848504 3.75,-3.75 C 13.750039,3.6848059 12.065194,1.9999999 10,2 Z m 0,1 c 1.524747,0 2.750029,1.2252526 2.75,2.75 C 12.749982,7.2747138 11.524713,8.5 10,8.5 8.4752866,8.5 7.250018,7.2747137 7.25,5.75 7.2499711,4.2252527 8.475253,3 10,3 Z"/>
	<path d="m 10,10.5 c -2.0651733,0 -3.7500391,1.684826 -3.75,3.75 2.44e-5,2.065129 1.6848712,3.75 3.75,3.75 2.065129,0 3.749976,-1.684871 3.75,-3.75 3.9e-5,-2.065174 -1.684827,-3.75 -3.75,-3.75 z m 0,1 c 1.524768,0 2.750029,1.225232 2.75,2.75 C 12.749982,15.774734 11.524734,17 10,17 8.4752661,17 7.250018,15.774734 7.25,14.25 7.2499711,12.725232 8.4752325,11.5 10,11.5 Z"/>
	<path d="m 8.27664,6.1628251 0.1930266,0 q 0.1162034,0 0.1697859,-0.050358 0.053583,-0.050357 0.053583,-0.1601054 0,-0.1090921 -0.053583,-0.1588044 -0.052937,-0.050358 -0.1697859,-0.050358 l -0.1930266,0 0,0.4196248 z m 0,-0.4880585 0.1639758,0 q 0.1058741,0 0.1542922,-0.040669 0.049064,-0.040669 0.049064,-0.1284693 0,-0.088446 -0.049064,-0.1284693 -0.048418,-0.040669 -0.1542922,-0.040669 l -0.1639758,0 0,0.3382764 z m -0.2537107,0.5564922 0,-0.068434 0.1226591,0 0,-0.8263349 -0.1226591,0 0,-0.069079 0.4757881,0 q 0.1458998,0 0.2194952,0.060035 0.074241,0.059401 0.074241,0.1781816 0,0.085865 -0.051646,0.1368675 -0.051,0.050992 -0.1497732,0.062616 0.1226591,0.015496 0.1859253,0.078757 0.063912,0.062627 0.063912,0.168493 0,0.1433195 -0.09038,0.2111081 -0.09038,0.067788 -0.2821159,0.067788 l -0.4454461,0 z"/>
	<path d="m 9.4890281,6.1809013 q 0.1581656,0 0.2388624,-0.1084574 0.080697,-0.1091027 0.080697,-0.3221463 0,-0.2136783 -0.080697,-0.3221358 -0.080697,-0.1091026 -0.2388624,-0.1091026 -0.1588113,0 -0.239508,0.1091026 -0.080697,0.1084575 -0.080697,0.3221358 0,0.2130436 0.080697,0.3221463 0.080697,0.1084574 0.239508,0.1084574 z m 0,0.069079 q -0.098127,0 -0.1807607,-0.032281 -0.081988,-0.032281 -0.1446087,-0.094898 -0.072304,-0.072305 -0.1078108,-0.1639766 -0.034861,-0.091672 -0.034861,-0.2085272 0,-0.1168451 0.034861,-0.2085167 0.035507,-0.092317 0.1078108,-0.1646218 0.063266,-0.063262 0.1446087,-0.094898 0.081342,-0.032281 0.1807607,-0.032281 0.2098116,0 0.3389264,0.1375127 0.1291148,0.1375022 0.1291148,0.3628047 0,0.1155652 -0.035507,0.2085272 -0.035507,0.092317 -0.1078109,0.1639766 -0.063266,0.063261 -0.1446085,0.095543 -0.081342,0.031636 -0.1801152,0.031636 z"/>
	<path d="m 10.357971,6.1628251 0.120077,0 q 0.187862,0 0.287926,-0.1071671 0.100709,-0.107167 0.100709,-0.307296 0,-0.2001291 -0.100064,-0.3059951 -0.100064,-0.1058767 -0.288571,-0.1058767 l -0.120077,0 0,0.8263349 z m -0.253711,0.068434 0,-0.068434 0.122659,0 0,-0.8263349 -0.122659,0 0,-0.069079 0.383471,0 q 0.249192,0 0.38799,0.1271789 0.139444,0.1271788 0.139444,0.3537718 0,0.2272486 -0.139444,0.3550727 -0.139444,0.1278241 -0.38799,0.1278241 l -0.383471,0 z"/>
	<path d="m 11.342471,6.2312588 0,-0.068434 0.123305,0 0,-0.3466746 -0.29761,-0.4796603 -0.09038,0 0,-0.069079 0.358294,0 0,0.069079 -0.11233,0 0.240799,0.3899243 0.240799,-0.3899243 -0.108457,0 0,-0.069079 0.28018,0 0,0.069079 -0.09103,0 -0.289863,0.4673909 0,0.358944 0.123305,0 0,0.068434 -0.377016,0 z"/>
	<path d="m 8.0914818,14.684402 0,-0.219407 0.074211,0.0011 q 0.00323,0.109704 0.063241,0.162621 0.060659,0.05226 0.1839147,0.05226 0.114866,0 0.1748803,-0.04517 0.060659,-0.04582 0.060659,-0.132932 0,-0.0697 -0.036783,-0.107124 -0.036138,-0.03743 -0.1535849,-0.07292 l -0.1271271,-0.03807 q -0.1380973,-0.04195 -0.1948849,-0.104544 -0.056142,-0.06259 -0.056142,-0.17165 0,-0.122613 0.087117,-0.190374 0.087117,-0.06775 0.2445743,-0.06775 0.067113,0 0.1471317,0.01483 0.080019,0.0142 0.1703632,0.04195 l 0,0.205208 -0.072921,0 q -0.01097,-0.101965 -0.068403,-0.147132 -0.056788,-0.04582 -0.1735897,-0.04582 -0.1019598,0 -0.1555208,0.04195 -0.052916,0.0413 -0.052916,0.120667 0,0.06905 0.04001,0.108414 0.04001,0.03936 0.1697178,0.07808 l 0.1193832,0.03549 q 0.1309989,0.03937 0.186496,0.100674 0.056142,0.06066 0.056142,0.163266 0,0.140027 -0.089699,0.211013 -0.089699,0.07099 -0.2671604,0.07099 -0.079374,0 -0.1619739,-0.01614 -0.081955,-0.01613 -0.1671366,-0.04904 z"/>
	<path d="m 9.4169582,14.680522 q 0.1581021,0 0.2387665,-0.108414 0.080664,-0.109048 0.080664,-0.322006 0,-0.213603 -0.080664,-0.322017 -0.080664,-0.109059 -0.2387665,-0.109059 -0.1587474,0 -0.2394117,0.109059 -0.080664,0.108414 -0.080664,0.322017 0,0.212958 0.080664,0.322006 0.080664,0.108414 0.2394117,0.108414 z m 0,0.06905 q -0.098088,0 -0.1806881,-0.03227 -0.081955,-0.03226 -0.1445505,-0.09486 -0.072275,-0.07228 -0.1077675,-0.163911 -0.034847,-0.09164 -0.034847,-0.208433 0,-0.116798 0.034847,-0.208433 0.035492,-0.09228 0.1077675,-0.164556 0.063241,-0.06325 0.1445505,-0.09487 0.08131,-0.03226 0.1806881,-0.03226 0.2097273,0 0.3387902,0.137447 0.129063,0.137457 0.129063,0.362669 0,0.115508 -0.035492,0.208433 -0.035492,0.09228 -0.1077676,0.163911 -0.063241,0.06325 -0.1445505,0.0955 -0.08131,0.03162 -0.1800428,0.03162 z"/>
	<path d="m 10.144228,13.83645 -0.123255,0 0,-0.06904 0.376864,0 0,0.06904 -0.123256,0 0,0.498192 q 0,0.18456 0.06001,0.257481 0.06066,0.07292 0.208436,0.07292 0.147777,0 0.207792,-0.07292 0.06066,-0.07292 0.06066,-0.257481 l 0,-0.498192 -0.123255,0 0,-0.06904 0.325239,0 0,0.06904 -0.12261,0 0,0.511091 q 0,0.220053 -0.08454,0.311042 -0.08454,0.09099 -0.287165,0.09099 -0.202629,0 -0.289101,-0.09163 -0.08583,-0.09164 -0.08583,-0.310398 l 0,-0.511091 z"/>
	<path d="m 11.147047,14.730859 0,-0.06841 0.12261,0 0,-0.826003 -0.12261,0 0,-0.06904 0.376218,0 0,0.06904 -0.122609,0 0,0.815039 0.440104,0 0,-0.161331 0.07937,0 0,0.240701 -0.773087,0 z"/>
</svg>
