<?xml version="1.0" encoding="utf-8"?>
<svg xmlns="http://www.w3.org/2000/svg" xmlns:svg="http://www.w3.org/2000/svg" version="1.1" viewBox="0 0 20 20">
	<title>A circle enclosing two smaller circles, the top one containing the word Soul, and the bottom one containing the word Body.</title>
	<path d="M 10,0 C 4.4831234,0 2.7061884e-5,4.4831234 0,10 -3.1011058e-5,15.516918 4.4830825,20 10,20 15.516918,20 20.000031,15.516918 20,10 19.999973,4.4831232 15.516877,-2.3235723e-7 10,0 Z m 0,1 c 4.976438,-2.1e-7 8.999976,4.0235616 9,9 2.8e-5,4.976476 -4.023524,9 -9,9 -4.9764754,0 -9.00002797,-4.023525 -9,-9 2.44e-5,-4.9764382 4.0235618,-9 9,-9 z"/>
	<path d="M 10,2 C 7.9348061,2 6.2499609,3.6848059 6.25,5.75 6.2500244,7.8151496 7.9348506,9.5 10,9.5 c 2.065149,10e-8 3.749976,-1.6848504 3.75,-3.75 C 13.750039,3.6848059 12.065194,1.9999999 10,2 Z m 0,1 c 1.524747,0 2.750029,1.2252526 2.75,2.75 C 12.749982,7.2747138 11.524713,8.5 10,8.5 8.4752866,8.5 7.250018,7.2747137 7.25,5.75 7.2499711,4.2252527 8.475253,3 10,3 Z"/>
	<path d="m 10,10.5 c -2.0651733,0 -3.7500391,1.684826 -3.75,3.75 2.44e-5,2.065129 1.6848712,3.75 3.75,3.75 2.065129,0 3.749976,-1.684871 3.75,-3.75 3.9e-5,-2.065174 -1.684827,-3.75 -3.75,-3.75 z m 0,1 c 1.524768,0 2.750029,1.225232 2.75,2.75 C 12.749982,15.774734 11.524734,17 10,17 8.4752661,17 7.250018,15.774734 7.25,14.25 7.2499711,12.725232 8.4752325,11.5 10,11.5 Z"/>
	<path d="m 8.2766401,14.662795 0.1930266,0 q 0.1162034,0 0.1697859,-0.05036 0.053583,-0.05036 0.053583,-0.160106 0,-0.109092 -0.053583,-0.158804 -0.052937,-0.05036 -0.1697859,-0.05036 l -0.1930266,0 0,0.419625 z m 0,-0.488058 0.1639758,0 q 0.1058741,0 0.1542922,-0.04067 0.049064,-0.04067 0.049064,-0.12847 0,-0.08845 -0.049064,-0.128469 Q 8.54649,13.83646 8.4406159,13.83646 l -0.1639758,0 0,0.338277 z m -0.2537107,0.556492 0,-0.06843 0.1226591,0 0,-0.826335 -0.1226591,0 0,-0.06908 0.4757881,0 q 0.1458998,0 0.2194952,0.06004 0.074241,0.0594 0.074241,0.178181 0,0.08586 -0.051646,0.136868 -0.051,0.05099 -0.1497732,0.06262 0.1226591,0.0155 0.1859253,0.07876 0.063912,0.06263 0.063912,0.168493 0,0.14332 -0.09038,0.211108 -0.09038,0.06779 -0.2821159,0.06779 l -0.4454461,0 z"/>
	<path d="m 9.4890282,14.680871 q 0.1581656,0 0.2388624,-0.108457 0.080697,-0.109103 0.080697,-0.322146 0,-0.213679 -0.080697,-0.322136 -0.080697,-0.109103 -0.2388624,-0.109103 -0.1588113,0 -0.239508,0.109103 -0.080697,0.108457 -0.080697,0.322136 0,0.213043 0.080697,0.322146 0.080697,0.108457 0.239508,0.108457 z m 0,0.06908 q -0.098127,0 -0.1807607,-0.03228 -0.081988,-0.03228 -0.1446087,-0.0949 -0.072304,-0.07231 -0.1078108,-0.163976 -0.034861,-0.09167 -0.034861,-0.208527 0,-0.116846 0.034861,-0.208517 0.035507,-0.09232 0.1078108,-0.164622 0.063266,-0.06326 0.1446087,-0.0949 0.081342,-0.03228 0.1807607,-0.03228 0.2098116,0 0.3389264,0.137513 0.1291148,0.137502 0.1291148,0.362805 0,0.115565 -0.035507,0.208527 -0.035507,0.09232 -0.1078109,0.163976 -0.063266,0.06326 -0.1446085,0.09554 -0.081342,0.03164 -0.1801152,0.03164 z"/>
	<path d="m 10.357971,14.662795 0.120077,0 q 0.187862,0 0.287926,-0.107167 0.100709,-0.107167 0.100709,-0.307296 0,-0.200129 -0.100064,-0.305995 -0.100064,-0.105877 -0.288571,-0.105877 l -0.120077,0 0,0.826335 z m -0.253711,0.06843 0,-0.06843 0.122659,0 0,-0.826335 -0.122659,0 0,-0.06908 0.383471,0 q 0.249192,0 0.38799,0.127179 0.139444,0.127179 0.139444,0.353772 0,0.227249 -0.139444,0.355073 -0.139444,0.127824 -0.38799,0.127824 l -0.383471,0 z"/>
	<path d="m 11.342471,14.731229 0,-0.06843 0.123305,0 0,-0.346675 -0.29761,-0.47966 -0.09038,0 0,-0.06908 0.358294,0 0,0.06908 -0.11233,0 0.240799,0.389924 0.240799,-0.389924 -0.108456,0 0,-0.06908 0.280179,0 0,0.06908 -0.09103,0 -0.289863,0.467391 0,0.358944 0.123305,0 0,0.06843 -0.377016,0 z"/>
	<path d="m 8.0914818,6.1843623 0,-0.2194075 0.074211,0.00106 q 0.00323,0.1097038 0.063241,0.1626208 0.060659,0.052261 0.1839147,0.052261 0.114866,0 0.1748803,-0.045167 0.060659,-0.045823 0.060659,-0.1329323 0,-0.069696 -0.036783,-0.107124 -0.036138,-0.037428 -0.1535849,-0.072921 L 8.3308935,5.7846774 Q 8.1927962,5.7427244 8.1360086,5.6801332 q -0.056142,-0.062591 -0.056142,-0.17165 0,-0.1226132 0.087117,-0.1903745 0.087117,-0.067751 0.2445743,-0.067751 0.067113,0 0.1471317,0.014834 0.080019,0.014199 0.1703632,0.041953 l 0,0.2052082 -0.072921,0 q -0.01097,-0.1019645 -0.068403,-0.1471316 -0.056788,-0.045823 -0.1735897,-0.045823 -0.1019598,0 -0.1555208,0.041953 -0.052916,0.041297 -0.052916,0.1206678 0,0.069051 0.04001,0.1084139 0.04001,0.039363 0.1697178,0.07808 l 0.1193832,0.035493 q 0.1309989,0.039373 0.186496,0.1006745 0.056142,0.060656 0.056142,0.1632658 0,0.1400266 -0.089699,0.2110126 -0.089699,0.070986 -0.2671604,0.070986 -0.079374,0 -0.1619739,-0.016134 -0.081955,-0.016134 -0.1671366,-0.049037 z"/>
	<path d="m 9.4169582,6.1804821 q 0.1581021,0 0.2387665,-0.1084139 0.080664,-0.1090482 0.080664,-0.3220063 0,-0.213603 -0.080664,-0.3220168 -0.080664,-0.1090588 -0.2387665,-0.1090588 -0.1587474,0 -0.2394117,0.1090588 -0.080664,0.1084138 -0.080664,0.3220168 0,0.2129581 0.080664,0.3220063 0.080664,0.1084139 0.2394117,0.1084139 z m 0,0.069051 q -0.098088,0 -0.1806881,-0.032268 -0.081955,-0.032258 -0.1445505,-0.09486 -0.072275,-0.072276 -0.1077675,-0.1639107 -0.034847,-0.091635 -0.034847,-0.2084329 0,-0.1167981 0.034847,-0.2084328 0.035492,-0.09228 0.1077675,-0.1645557 0.063241,-0.063247 0.1445505,-0.09487 0.08131,-0.032258 0.1806881,-0.032258 0.2097273,0 0.3387902,0.1374468 0.129063,0.1374575 0.129063,0.3626694 0,0.1155083 -0.035492,0.2084329 -0.035492,0.09228 -0.1077676,0.1639107 -0.063241,0.063247 -0.1445505,0.095504 -0.08131,0.031623 -0.1800428,0.031623 z"/>
	<path d="m 10.144228,5.3364103 -0.123255,0 0,-0.069041 0.376864,0 0,0.069041 -0.123256,0 0,0.498192 q 0,0.1845595 0.06001,0.2574803 0.06066,0.072921 0.208436,0.072921 0.147777,0 0.207792,-0.072921 0.06066,-0.072921 0.06066,-0.2574803 l 0,-0.498192 -0.123255,0 0,-0.069041 0.325239,0 0,0.069041 -0.12261,0 0,0.5110909 q 0,0.2200524 -0.08454,0.3110423 -0.08454,0.09099 -0.287165,0.09099 -0.202629,0 -0.289101,-0.091635 -0.08583,-0.091635 -0.08583,-0.3103973 l 0,-0.5110909 z"/>
	<path d="m 11.147047,6.2308194 0,-0.068406 0.12261,0 0,-0.8260028 -0.12261,0 0,-0.069041 0.376218,0 0,0.069041 -0.122609,0 0,0.8150388 0.440104,0 0,-0.1613309 0.07937,0 0,0.2407012 -0.773087,0 z"/>
</svg>
